<svg xmlns="http://www.w3.org/2000/svg" viewBox="0 0 731.39 143.6"><defs><style>.a{fill:#39b54a;}</style></defs><title>veriform</title><path d="M224.17,95.55c28.8,0,48.4,21.6,48.4,53.2v5.6h-71.8c1.6,12.2,11.4,22.4,27.8,22.4,9,0,19.6-3.6,25.8-9.6l11.2,16.4c-9.8,9-24.8,13.4-39.8,13.4-29.4,0-51.6-19.8-51.6-50.8C174.17,118.15,194.77,95.55,224.17,95.55Zm-23.8,41.6H248c-.6-9.2-7-21.4-23.8-21.4C208.37,115.75,201.57,127.55,200.37,137.15Z" transform="translate(-41.77 -53.35)"/><path d="M291,98h25.4v13.2c6.8-8.6,18.8-15.4,30.8-15.4v24.8a33.73,33.73,0,0,0-7-.6c-8.4,0-19.6,4.6-23.8,10.8v63.8H291Z" transform="translate(-41.77 -53.35)"/><path d="M360.37,68.55a15.2,15.2,0,1,1,15.19,15.2A15.31,15.31,0,0,1,360.37,68.55ZM363,98h25.4v96.6H363Z" transform="translate(-41.77 -53.35)"/><path d="M420.56,107.15h-16V98h16v-8.8c0-19,10.2-30,26.2-30,4.8,0,9.2.8,13,3l-3.2,8.2a16.86,16.86,0,0,0-8.8-2.2c-11,0-16.8,7.6-16.8,21V98h19.6v9.2H431v87.4h-10.4Z" transform="translate(-41.77 -53.35)"/><path d="M464.56,146.15c0-28.2,18.2-50.6,46.4-50.6,28.6,0,46.6,22.4,46.6,50.6S539.56,197,511,197C482.76,197,464.56,174.35,464.56,146.15Zm81.8,0c0-21.4-12.6-41.2-35.4-41.2-22.4,0-35.2,19.8-35.2,41.2,0,21.6,12.8,41.4,35.2,41.4C533.76,187.55,546.36,167.75,546.36,146.15Z" transform="translate(-41.77 -53.35)"/><path d="M584.36,98h10.4v16.6C603,103.75,614,96,627.36,96v11.4a22,22,0,0,0-5.2-.4c-9.8,0-23,8.8-27.4,17.2v70.4h-10.4Z" transform="translate(-41.77 -53.35)"/><path d="M762.76,127c0-13.6-5.8-22-19.4-22-10.4,0-22.2,7.6-27.6,16.4v73.2h-10.6V127c0-13.6-5.6-22-19.4-22-10.2,0-21.8,7.8-27.6,16.6v73h-10.4V98h10.4v14.6c4-6.2,17.2-17,31.2-17,15,0,23,8.8,25.4,18.2,5.4-9,18.4-18.2,32-18.2,17.8,0,26.4,10,26.4,29.4v69.6h-10.4Z" transform="translate(-41.77 -53.35)"/><path d="M74.17,61.15H41.77L71,136.62h30.43ZM95.5,122.09v0Z" transform="translate(-41.77 -53.35)"/><polygon class="a" points="106.2 7.8 69.4 110.4 59.62 83.27 29.19 83.27 51.6 141.2 87.2 141.2 138.6 7.8 106.2 7.8"/></svg>